<?xml version="1.0" encoding="UTF-8" standalone="no"?>
<!DOCTYPE svg PUBLIC "-//W3C//DTD SVG 1.1//EN" "http://www.w3.org/Graphics/SVG/1.1/DTD/svg11.dtd">
<svg width="100%" height="100%" viewBox="0 0 16667 671" version="1.1" xmlns="http://www.w3.org/2000/svg" xmlns:xlink="http://www.w3.org/1999/xlink" xml:space="preserve" xmlns:serif="http://www.serif.com/" style="fill-rule:evenodd;clip-rule:evenodd;stroke-linejoin:round;stroke-miterlimit:2;">
    <g transform="matrix(1,0,0,1,-11615,-7924)">
        <g transform="matrix(1,0,0,1,12617,7359)">
            <g transform="matrix(4.16667,0,0,4.16667,7331.33,111)">
                <clipPath id="_clip1">
                    <rect x="-2000" y="108.96" width="4000" height="161.04"/>
                </clipPath>
                <g clip-path="url(#_clip1)">
                    <g transform="matrix(1,0,0,1,-2000,-270)">
                        <clipPath id="_clip2">
                            <rect x="0" y="0" width="4000" height="540"/>
                        </clipPath>
                        <g clip-path="url(#_clip2)">
                            <path d="M0,415L95.2,424.7C190.3,434.3 380.7,453.7 571.2,448.8C761.7,444 952.3,415 1142.8,401.7C1333.3,388.3 1523.7,390.7 1714.2,396.3C1904.7,402 2095.3,411 2285.8,426C2476.3,441 2666.7,462 2857.2,464.2C3047.7,466.3 3238.3,449.7 3428.8,444C3619.3,438.3 3809.7,443.7 3904.8,446.3L4000,449L4000,541L0,541L0,415Z" style="fill:rgb(255,253,245);fill-rule:nonzero;"/>
                        </g>
                    </g>
                </g>
            </g>
        </g>
    </g>
</svg>
