<?xml version="1.0" encoding="UTF-8" standalone="no"?>
<!DOCTYPE svg PUBLIC "-//W3C//DTD SVG 1.1//EN" "http://www.w3.org/Graphics/SVG/1.1/DTD/svg11.dtd">
<svg width="100%" height="100%" viewBox="0 0 16667 896" version="1.1" xmlns="http://www.w3.org/2000/svg" xmlns:xlink="http://www.w3.org/1999/xlink" xml:space="preserve" xmlns:serif="http://www.serif.com/" style="fill-rule:evenodd;clip-rule:evenodd;stroke-linejoin:round;stroke-miterlimit:2;">
    <g transform="matrix(1,0,0,1,-14652,-9810)">
        <g transform="matrix(1,0,0,1,12617,7359)">
            <g transform="matrix(4.16667,0,0,4.16667,10368.3,2097)">
                <clipPath id="_clip1">
                    <rect x="-2000" y="84.96" width="4000" height="215.04"/>
                </clipPath>
                <g clip-path="url(#_clip1)">
                    <g transform="matrix(1,0,0,1,-2000,-300)">
                        <clipPath id="_clip2">
                            <rect x="0" y="0" width="4000" height="600"/>
                        </clipPath>
                        <g clip-path="url(#_clip2)">
                            <path d="M0,455L95.2,457.5C190.3,460 380.7,465 571.2,474.7C761.7,484.3 952.3,498.7 1142.8,494.5C1333.3,490.3 1523.7,467.7 1714.2,445C1904.7,422.3 2095.3,399.7 2285.8,403.3C2476.3,407 2666.7,437 2857.2,439.8C3047.7,442.7 3238.3,418.3 3428.8,408.5C3619.3,398.7 3809.7,403.3 3904.8,405.7L4000,408L4000,601L0,601L0,455Z" style="fill:rgb(252,242,230);fill-rule:nonzero;"/>
                        </g>
                    </g>
                </g>
            </g>
        </g>
    </g>
</svg>
