<?xml version="1.0" encoding="UTF-8" standalone="no"?>
<!DOCTYPE svg PUBLIC "-//W3C//DTD SVG 1.1//EN" "http://www.w3.org/Graphics/SVG/1.1/DTD/svg11.dtd">
<svg width="100%" height="100%" viewBox="0 0 432 171" version="1.1" xmlns="http://www.w3.org/2000/svg" xmlns:xlink="http://www.w3.org/1999/xlink" xml:space="preserve" xmlns:serif="http://www.serif.com/" style="fill-rule:evenodd;clip-rule:evenodd;stroke-linejoin:round;stroke-miterlimit:2;">
    <g transform="matrix(1,0,0,1,-22962,-19509)">
        <g transform="matrix(1,0,0,1,12617,7359)">
            <g transform="matrix(0.937093,0,0,0.895288,-11172.5,-5316.17)">
                <rect x="22962" y="19509" width="461" height="191" style="fill:none;"/>
            </g>
        </g>
        <g transform="matrix(1,0,0,1,12617,7359)">
            <g transform="matrix(2.58272,0,0,2.58272,-16191.3,-19337.5)">
                <g transform="matrix(0.946847,0,0,0.873076,-11412.3,-4866.56)">
                    <g transform="matrix(0.678735,0,0,1,7394.82,2.27374e-12)">
                        <path d="M23028.6,19574L23027,19575.5C23026.3,19574.4 23025.4,19573.9 23024.5,19573.9C23023.8,19573.9 23023.2,19574.1 23022.7,19574.5C23022.3,19574.9 23022.1,19575.5 23022.1,19576.1C23022.1,19576.6 23022.2,19577.1 23022.5,19577.4C23022.7,19577.6 23022.9,19577.8 23023.2,19578C23023.5,19578.3 23023.9,19578.5 23024.4,19578.8C23025.7,19579.6 23026.6,19580.3 23027.1,19580.9C23027.5,19581.6 23027.8,19582.4 23027.8,19583.5C23027.8,19584.8 23027.3,19585.9 23026.4,19586.8C23025.5,19587.6 23024.4,19588 23022.9,19588C23021.8,19588 23020.8,19587.8 23020,19587.3C23019.6,19587 23019.2,19586.7 23018.8,19586.3C23018.5,19585.9 23018.1,19585.4 23017.8,19584.8L23019.6,19583.6C23020.1,19584.5 23020.5,19585 23021,19585.4C23021.5,19585.7 23022.1,19585.8 23022.8,19585.8C23023.6,19585.8 23024.3,19585.6 23024.7,19585.2C23025.2,19584.8 23025.4,19584.1 23025.4,19583.3C23025.4,19582.8 23025.2,19582.3 23024.9,19581.9C23024.7,19581.7 23024.5,19581.5 23024.1,19581.3C23023.8,19581 23023.4,19580.8 23022.9,19580.5C23021.7,19579.8 23020.9,19579.1 23020.4,19578.5C23020,19577.8 23019.7,19577 23019.7,19576.1C23019.7,19574.8 23020.2,19573.8 23021,19572.9C23021.9,19572.1 23023,19571.7 23024.4,19571.7C23025.3,19571.7 23026,19571.9 23026.6,19572.2C23027.3,19572.6 23027.9,19573.2 23028.6,19574Z" style="fill:rgb(56,52,52);fill-rule:nonzero;"/>
                    </g>
                    <g transform="matrix(0.70669,0,0,1,6753.63,-2.27374e-12)">
                        <path d="M23043.7,19572L23042.6,19581.3C23042.3,19583.4 23041.8,19584.9 23041.1,19585.8C23040,19587.3 23038.4,19588 23036.4,19588C23034.8,19588 23033.4,19587.5 23032.4,19586.6C23031.3,19585.6 23030.7,19584.3 23030.7,19582.9C23030.7,19582.6 23030.8,19582.2 23030.8,19581.9C23030.8,19581.5 23030.8,19581.2 23030.9,19580.8L23032,19572L23034.3,19572L23033.2,19581.1C23033.1,19581.4 23033.1,19581.6 23033.1,19581.8C23033.1,19582.1 23033.1,19582.3 23033.1,19582.5C23033.1,19583.5 23033.4,19584.3 23033.9,19584.9C23034.5,19585.5 23035.3,19585.9 23036.4,19585.9C23037.5,19585.9 23038.4,19585.5 23039,19584.7C23039.6,19583.9 23040.1,19582.7 23040.3,19581L23041.4,19572L23043.7,19572Z" style="fill:rgb(56,52,52);fill-rule:nonzero;"/>
                    </g>
                    <g transform="matrix(0.792929,0,0,1,4769,2.27374e-12)">
                        <path d="M23047.5,19572L23050.7,19572C23052,19572 23053.1,19572.2 23053.8,19572.7C23054.4,19573.1 23054.9,19573.6 23055.2,19574.3C23055.6,19575 23055.7,19575.7 23055.7,19576.5C23055.7,19577.6 23055.4,19578.6 23054.8,19579.5C23053.9,19580.7 23052.4,19581.4 23050.4,19581.4L23048.6,19581.4L23047.9,19587.7L23045.5,19587.7L23047.5,19572ZM23049.5,19574.2L23048.9,19579.3L23050.4,19579.3C23051.4,19579.3 23052.1,19579 23052.6,19578.6C23053.1,19578.1 23053.4,19577.4 23053.4,19576.4C23053.4,19574.9 23052.4,19574.2 23050.5,19574.2L23049.5,19574.2Z" style="fill:rgb(56,52,52);fill-rule:nonzero;"/>
                    </g>
                    <g transform="matrix(0.689464,0,0,1,7157.6,2.27374e-12)">
                        <path d="M23059.1,19572L23062.3,19572C23063.7,19572 23064.7,19572.2 23065.4,19572.7C23066,19573.1 23066.5,19573.6 23066.8,19574.3C23067.2,19575 23067.4,19575.7 23067.4,19576.5C23067.4,19577.6 23067,19578.6 23066.4,19579.5C23065.5,19580.7 23064,19581.4 23062,19581.4L23060.3,19581.4L23059.5,19587.7L23057.2,19587.7L23059.1,19572ZM23061.2,19574.2L23060.5,19579.3L23062,19579.3C23063,19579.3 23063.7,19579 23064.2,19578.6C23064.8,19578.1 23065,19577.4 23065,19576.4C23065,19574.9 23064,19574.2 23062.1,19574.2L23061.2,19574.2Z" style="fill:rgb(56,52,52);fill-rule:nonzero;"/>
                    </g>
                </g>
                <g transform="matrix(1.05517,0,0,0.896182,-13911.8,-5301.43)">
                    <g transform="matrix(0.619236,0,0,1,8764.36,-9.09495e-13)">
                        <path d="M23028.6,19574L23027,19575.5C23026.3,19574.4 23025.4,19573.9 23024.5,19573.9C23023.8,19573.9 23023.2,19574.1 23022.7,19574.5C23022.3,19574.9 23022.1,19575.5 23022.1,19576.1C23022.1,19576.6 23022.2,19577.1 23022.5,19577.4C23022.7,19577.6 23022.9,19577.8 23023.2,19578C23023.5,19578.3 23023.9,19578.5 23024.4,19578.8C23025.7,19579.6 23026.6,19580.3 23027.1,19580.9C23027.5,19581.6 23027.8,19582.4 23027.8,19583.5C23027.8,19584.8 23027.3,19585.9 23026.4,19586.8C23025.5,19587.6 23024.4,19588 23022.9,19588C23021.8,19588 23020.8,19587.8 23020,19587.3C23019.6,19587 23019.2,19586.7 23018.8,19586.3C23018.5,19585.9 23018.1,19585.4 23017.8,19584.8L23019.6,19583.6C23020.1,19584.5 23020.5,19585 23021,19585.4C23021.5,19585.7 23022.1,19585.8 23022.8,19585.8C23023.6,19585.8 23024.3,19585.6 23024.7,19585.2C23025.2,19584.8 23025.4,19584.1 23025.4,19583.3C23025.4,19582.8 23025.2,19582.3 23024.9,19581.9C23024.7,19581.7 23024.5,19581.5 23024.1,19581.3C23023.8,19581 23023.4,19580.8 23022.9,19580.5C23021.7,19579.8 23020.9,19579.1 23020.4,19578.5C23020,19577.8 23019.7,19577 23019.7,19576.1C23019.7,19574.8 23020.2,19573.8 23021,19572.9C23021.9,19572.1 23023,19571.7 23024.4,19571.7C23025.3,19571.7 23026,19571.9 23026.6,19572.2C23027.3,19572.6 23027.9,19573.2 23028.6,19574Z" style="fill:rgb(56,52,52);fill-rule:nonzero;"/>
                    </g>
                    <g transform="matrix(0.747641,0,0,1,5810.38,-9.09495e-13)">
                        <path d="M23036.4,19574.2L23034.7,19587.7L23032.4,19587.7L23034.1,19574.2L23030.3,19574.2L23030.6,19572L23040.2,19572L23040,19574.2L23036.4,19574.2Z" style="fill:rgb(56,52,52);fill-rule:nonzero;"/>
                    </g>
                    <g transform="matrix(0.712927,0,0,1,6614.47,-9.09495e-13)">
                        <path d="M23051.3,19578.6C23051.3,19579.9 23051.1,19581.3 23050.7,19582.6C23050.3,19584 23049.8,19585.1 23049.2,19585.9C23048.2,19587.3 23046.9,19587.9 23045.3,19587.9C23043.8,19587.9 23042.6,19587.3 23041.7,19586.1C23040.8,19584.9 23040.3,19583.2 23040.3,19581C23040.3,19578.4 23040.9,19576.2 23042.1,19574.4C23043.3,19572.7 23044.8,19571.8 23046.5,19571.8C23048,19571.8 23049.1,19572.4 23050,19573.6C23050.9,19574.9 23051.3,19576.5 23051.3,19578.6ZM23049,19578.5C23049,19577 23048.8,19575.9 23048.4,19575.1C23047.9,19574.3 23047.3,19573.9 23046.5,19573.9C23045.4,19573.9 23044.5,19574.6 23043.7,19576C23043,19577.5 23042.6,19579.2 23042.6,19581.3C23042.6,19582.7 23042.8,19583.8 23043.3,19584.7C23043.8,19585.4 23044.4,19585.8 23045.2,19585.8C23046.2,19585.8 23047.1,19585.3 23047.8,19584.1C23048.1,19583.5 23048.4,19582.6 23048.7,19581.6C23048.9,19580.5 23049,19579.5 23049,19578.5Z" style="fill:rgb(56,52,52);fill-rule:nonzero;"/>
                    </g>
                    <g transform="matrix(0.621836,0,0,1,8717.36,-9.09495e-13)">
                        <path d="M23059.4,19581.1L23063.4,19587.7L23060.9,19587.7L23057.2,19581.3L23056.3,19581.3L23055.5,19587.7L23053.2,19587.7L23055.1,19572L23058.2,19572C23059.2,19572 23060,19572.1 23060.6,19572.3C23061.2,19572.5 23061.7,19572.8 23062.1,19573.2C23063,19574.1 23063.4,19575.1 23063.4,19576.5C23063.4,19578.9 23062.1,19580.4 23059.4,19581.1ZM23057.2,19574.2L23056.6,19579.2L23057.7,19579.2C23058.4,19579.2 23059,19579.1 23059.4,19579C23059.8,19578.8 23060.2,19578.6 23060.5,19578.2C23060.8,19577.7 23061,19577.1 23061,19576.5C23061,19575.7 23060.8,19575.1 23060.3,19574.7C23059.9,19574.4 23059.2,19574.2 23058.2,19574.2L23057.2,19574.2Z" style="fill:rgb(56,52,52);fill-rule:nonzero;"/>
                    </g>
                    <g transform="matrix(0.62167,0,0,1,8724.13,0.389731)">
                        <path d="M23075.6,19572L23075.4,19574.2L23069.6,19574.2L23069.1,19578.2L23074.9,19578.2L23074.6,19580.3L23068.9,19580.3L23068.2,19585.5L23074,19585.5L23073.7,19587.7L23065.6,19587.7L23067.6,19572L23075.6,19572Z" style="fill:rgb(56,52,52);fill-rule:nonzero;"/>
                    </g>
                </g>
                <g transform="matrix(1,0,0,1,-12617,-7359)">
                    <path d="M22979,19602L22981,19602L23001,19574L22986,19574L22988,19571L23003,19571L23009,19563L22977,19563L22972,19581L22993,19581L22991,19584L22973,19584L22969,19593L22985,19593L22979,19602Z" style="fill:rgb(56,52,52);"/>
                </g>
                <g transform="matrix(1,0,0,1,-12617,-7359)">
                    <path d="M22934,19593L22945,19593L22951,19572L22960,19572L22959,19574L22954,19574L22952,19582L22969,19582L22975,19563L22942,19563L22934,19593Z" style="fill:rgb(56,52,52);"/>
                </g>
                <g transform="matrix(1,0,0,1,-12617,-7359)">
                    <path d="M22927,19563L22939,19563L22931,19593L22918,19593L22903,19582C22903,19582 22901.9,19580.9 22902,19579C22902.1,19577.1 22906,19563 22906,19563L22918,19563L22913,19580L22920,19585L22927,19563Z" style="fill:rgb(56,52,52);"/>
                </g>
            </g>
        </g>
    </g>
</svg>
